<svg width="14" height="16" viewBox="0 0 14 16" fill="none" xmlns="http://www.w3.org/2000/svg">
<path fill-rule="evenodd" clip-rule="evenodd" d="M0.0829708 7.76671C-0.426832 5.60145 1.49712 3.76396 3.54144 4.10681C5.92895 4.50722 7.9916 4.51923 10.4506 4.1101C12.4962 3.76975 14.4277 5.6092 13.917 7.77824L12.5063 13.7701C12.1981 15.079 11.0548 16 9.74186 16H4.26085C2.9479 16 1.80462 15.079 1.49644 13.7701L0.0829708 7.76671ZM3.34789 5.32146C2.04785 5.10343 0.964697 6.26974 1.24911 7.47773L2.66259 13.4811C2.84032 14.236 3.50047 14.7692 4.26085 14.7692H9.74186C10.5022 14.7692 11.1624 14.236 11.3401 13.4811L12.7509 7.48926C13.0357 6.27968 11.9474 5.10791 10.6427 5.32499C8.0543 5.75565 5.86143 5.74301 3.34789 5.32146Z" fill="white"/>
<path fill-rule="evenodd" clip-rule="evenodd" d="M6.58904 1.23077C5.37434 1.23077 4.38963 2.241 4.38963 3.48718L4.38962 7.04189C4.38962 7.38176 4.12106 7.65728 3.78978 7.65728C3.4585 7.65728 3.18994 7.38176 3.18994 7.04189L3.18995 3.48717C3.18995 1.56126 4.71178 0 6.58904 0H7.38882C9.26609 0 10.7879 1.56126 10.7879 3.48718V7.17949C10.7879 7.51936 10.5194 7.79487 10.1881 7.79487C9.8568 7.79487 9.58824 7.51936 9.58824 7.17949V3.48718C9.58824 2.241 8.60353 1.23077 7.38882 1.23077H6.58904Z" fill="white"/>
</svg>
