<svg width="41" height="41" viewBox="0 0 41 41" fill="none" xmlns="http://www.w3.org/2000/svg">
<path d="M8.57199 25.7826C8.57199 28.1415 6.64495 30.0686 4.28599 30.0686C1.92704 30.0686 0 28.1415 0 25.7826C0 23.4236 1.92704 21.4966 4.28599 21.4966H8.57199V25.7826Z" fill="#E01E5A"/>
<path d="M10.7316 25.7823C10.7316 23.4234 12.6586 21.4963 15.0176 21.4963C17.3765 21.4963 19.3036 23.4234 19.3036 25.7823V36.5139C19.3036 38.8729 17.3765 40.7999 15.0176 40.7999C12.6586 40.7999 10.7316 38.8729 10.7316 36.5139V25.7823Z" fill="#E01E5A"/>
<path d="M15.0176 8.57199C12.6586 8.57199 10.7316 6.64495 10.7316 4.28599C10.7316 1.92704 12.6586 0 15.0176 0C17.3765 0 19.3036 1.92704 19.3036 4.28599V8.57199H15.0176Z" fill="#36C5F0"/>
<path d="M15.0176 10.7317C17.3765 10.7317 19.3036 12.6587 19.3036 15.0177C19.3036 17.3766 17.3765 19.3037 15.0176 19.3037H4.28599C1.92704 19.3037 0 17.3766 0 15.0177C0 12.6587 1.92704 10.7317 4.28599 10.7317H15.0176Z" fill="#36C5F0"/>
<path d="M32.228 15.0177C32.228 12.6587 34.1551 10.7317 36.514 10.7317C38.873 10.7317 40.8 12.6587 40.8 15.0177C40.8 17.3766 38.873 19.3037 36.514 19.3037H32.228V15.0177Z" fill="#2EB67D"/>
<path d="M30.0684 15.0176C30.0684 17.3765 28.1413 19.3036 25.7824 19.3036C23.4234 19.3036 21.4964 17.3765 21.4964 15.0176V4.28599C21.4964 1.92704 23.4234 0 25.7824 0C28.1413 0 30.0684 1.92704 30.0684 4.28599V15.0176Z" fill="#2EB67D"/>
<path d="M25.7824 32.228C28.1413 32.228 30.0684 34.1551 30.0684 36.514C30.0684 38.873 28.1413 40.8 25.7824 40.8C23.4234 40.8 21.4964 38.873 21.4964 36.514V32.228H25.7824Z" fill="#ECB22E"/>
<path d="M25.7824 30.0683C23.4234 30.0683 21.4964 28.1413 21.4964 25.7823C21.4964 23.4234 23.4234 21.4963 25.7824 21.4963H36.514C38.8729 21.4963 40.8 23.4234 40.8 25.7823C40.8 28.1413 38.8729 30.0683 36.514 30.0683H25.7824Z" fill="#ECB22E"/>
</svg>
