<svg width="123" height="123" viewBox="0 0 123 123" fill="none" xmlns="http://www.w3.org/2000/svg">
<g clip-path="url(#clip0_164_14412)">
<g clip-path="url(#clip1_164_14412)">
<path d="M62.1542 122.636C85.9188 122.636 105.184 119.619 105.184 115.897C105.184 112.176 85.9188 109.159 62.1542 109.159C38.3896 109.159 19.1245 112.176 19.1245 115.897C19.1245 119.619 38.3896 122.636 62.1542 122.636Z" fill="#A4A4CB"/>
<path opacity="0.8" d="M85.2395 46.5647C82.6109 43.7758 72.8741 41.6841 61.2582 41.6841C51.8455 41.6841 43.6635 43.0472 39.4976 45.0552L39.4348 45.0866C39.25 45.1772 39.0862 45.2713 38.9049 45.362L38.6818 45.491C38.5563 45.5642 38.4378 45.6374 38.3332 45.7106C31.9082 49.8522 32.5183 59.7319 32.2185 66.4219C31.6467 79.1812 31.4654 92.1951 32.8808 104.906C33.3236 108.855 34.0208 113.14 36.9457 115.824C39.2152 117.916 42.4608 118.613 45.5391 118.54C47.2473 118.498 75.5654 119.101 77.2283 118.889C80.962 118.435 84.7967 116.769 86.7176 113.53C87.7635 111.749 88.1644 109.657 88.4781 107.604C90.5036 94.4262 89.7227 81.0149 89.9458 67.6839C90.148 56.1447 90.148 50.2008 85.2395 46.5647Z" fill="#CADCFF"/>
<path opacity="0.402024" d="M89.9458 67.7014C89.7227 81.0325 90.5071 94.4402 88.4781 107.621C88.1644 109.668 87.7809 111.759 86.7176 113.548C84.7933 116.787 80.962 118.453 77.2283 118.906C76.7158 118.969 73.7073 118.955 69.7226 118.906C73.4563 118.453 77.2841 116.787 79.2049 113.548C80.2508 111.766 80.6552 109.675 80.948 107.621C82.977 94.4402 82.1961 81.0325 82.4192 67.7014C82.6144 56.1413 82.6144 50.1974 77.7094 46.5648C75.3632 44.0722 67.3799 42.1513 57.4513 41.7679C58.6854 41.7156 59.9509 41.6912 61.2407 41.6912C72.8566 41.6912 82.59 43.7829 85.2186 46.5718C90.148 50.2009 90.148 56.1274 89.9458 67.7014Z" fill="#ADC3F7"/>
<path d="M85.3789 38.1283C85.4066 37.9824 85.456 37.8414 85.5253 37.71C86.3062 35.9669 86.6793 33.0943 85.3057 31.5046C83.3639 29.2595 79.4524 28.5379 76.7228 27.9697C71.6504 26.9238 66.4247 26.5752 61.2512 26.5752C56.0777 26.5752 50.852 26.9238 45.7796 27.9697C43.0535 28.5379 39.1559 29.2595 37.2002 31.5046C35.994 32.8991 36.2833 35.831 36.6738 37.4939C36.7477 37.732 36.7841 37.9801 36.7819 38.2294C36.7345 38.5114 36.6465 38.7851 36.5204 39.0417C36.1771 40.0705 36.0385 41.1565 36.1125 42.2385C36.1125 43.1623 36.238 44.2256 36.869 44.8427C38.6713 47.914 48.9102 50.2637 61.2721 50.2637C74.5021 50.2637 85.3022 47.5689 85.9297 44.1873H85.9576C86.2853 42.378 85.9158 40.4571 85.4696 38.6687C85.4039 38.4963 85.3731 38.3127 85.3789 38.1283Z" fill="#8993DC"/>
<g style="mix-blend-mode:multiply" opacity="0.13935">
<path d="M85.4487 38.6652C85.895 40.4501 86.2645 42.3744 85.9368 44.1837H85.9054C85.2779 47.5688 74.4813 50.2601 61.2513 50.2601C50.8904 50.2601 42.0146 48.6077 38.3577 46.265C42.6944 48.1057 50.5174 49.3328 59.4489 49.3328C72.6789 49.3328 83.4756 46.638 84.1031 43.2564H84.131C84.4621 41.4471 84.0856 39.5227 83.6429 37.7378C83.5871 37.5634 83.5634 37.3803 83.5732 37.1975C83.603 37.0521 83.6523 36.9114 83.7196 36.7791C84.5005 35.0361 84.8735 32.1635 83.4965 30.5738C83.1064 30.1281 82.6544 29.7407 82.1543 29.4233C83.3494 29.8654 84.4241 30.5818 85.2918 31.515C86.6654 33.1012 86.2924 35.9634 85.508 37.7204C85.4413 37.8526 85.3932 37.9934 85.3651 38.1387C85.3608 38.3178 85.3892 38.4962 85.4487 38.6652Z" fill="#8993DC"/>
</g>
<g style="mix-blend-mode:multiply" opacity="0.387288">
<path d="M78.9923 114.754C78.9923 115.985 70.8904 116.985 60.8921 116.985C50.8938 116.985 42.792 115.985 42.792 114.754C42.792 113.524 50.8973 112.52 60.8921 112.52C70.887 112.52 78.9923 113.52 78.9923 114.754Z" fill="#ADC3F7"/>
</g>
<g style="mix-blend-mode:multiply" opacity="0.375215">
<path d="M60.8991 37.4832C73.8875 37.4832 84.4167 35.1748 84.4167 32.3272C84.4167 29.4796 73.8875 27.1711 60.8991 27.1711C47.9107 27.1711 37.3815 29.4796 37.3815 32.3272C37.3815 35.1748 47.9107 37.4832 60.8991 37.4832Z" fill="#8993DC"/>
</g>
<path d="M83.873 33.4359C81.5582 35.7507 72.149 37.4833 60.8957 37.4833C47.9063 37.4833 37.3746 35.1755 37.3746 32.3238C37.3746 31.6266 38.0056 30.9642 39.149 30.3611C38.9877 30.4996 38.8559 30.6691 38.7613 30.8596C38.6667 31.05 38.6112 31.2575 38.5982 31.4697C38.5982 34.3179 49.1264 36.6257 62.1159 36.6257C71.9398 36.6257 80.3554 35.3079 83.873 33.4359Z" fill="#9AA6E5"/>
<g opacity="0.55755">
<path opacity="0.55755" d="M41.9693 77.7416C42.7536 70.7484 42.3911 63.6192 42.29 56.605C42.3261 56.0274 42.2258 55.4494 41.9972 54.9177C41.8514 54.6333 41.6303 54.3944 41.3579 54.2271C41.0855 54.0599 40.7724 53.9708 40.4528 53.9695C40.111 53.9993 39.7794 54.1015 39.4801 54.2693C39.0159 54.4722 38.6027 54.7758 38.2704 55.1583C37.8103 55.7474 37.7754 56.5004 37.7545 57.2116C37.5906 62.9463 37.1758 68.6671 37.1897 74.4088C37.1897 76.7027 37.2664 79.0524 38.2356 81.2138C38.5842 81.9843 39.5045 82.8628 40.3273 82.4375C40.5291 82.3193 40.6972 82.1513 40.8153 81.9494C41.6241 80.6909 41.8228 79.1953 41.9693 77.7416Z" fill="#FEFEFE"/>
</g>
<g style="mix-blend-mode:multiply" opacity="0.375215">
<path d="M38.4448 38.6755C38.5528 38.7697 55.8198 47.3909 83.6916 38.6755" stroke="#8993DC" stroke-width="1.04585" stroke-miterlimit="10" stroke-linecap="round"/>
</g>
<g style="mix-blend-mode:multiply" opacity="0.375215">
<path d="M38.4448 41.9248C38.5528 42.0189 55.8198 50.6402 83.6916 41.9248" stroke="#8993DC" stroke-width="1.04585" stroke-miterlimit="10" stroke-linecap="round"/>
</g>
<path d="M67.2022 33.028H52.3302C52.0035 33.0243 51.6914 32.8919 51.4616 32.6596C51.2319 32.4272 51.1031 32.1137 51.1031 31.7869C51.104 31.4584 51.2352 31.1436 51.4678 30.9116C51.7005 30.6796 52.0156 30.5493 52.3442 30.5493H67.2161C67.5443 30.5493 67.8591 30.6797 68.0912 30.9118C68.3233 31.1439 68.4537 31.4587 68.4537 31.7869C68.4542 31.9509 68.4221 32.1134 68.3592 32.2648C68.2963 32.4163 68.204 32.5538 68.0876 32.6692C67.9711 32.7847 67.8329 32.8759 67.6809 32.9375C67.5289 32.9991 67.3662 33.0298 67.2022 33.028Z" fill="#8993DC"/>
<g style="mix-blend-mode:multiply" opacity="0.318934">
<g style="mix-blend-mode:multiply" opacity="0.318934">
<path d="M70.6255 20.8544C69.9282 25.4491 67.1393 28.5413 64.2423 32.2018C64.158 32.3107 64.053 32.4019 63.9333 32.4701C63.8137 32.5383 63.6817 32.5822 63.5451 32.5992C63.1986 32.6298 62.8499 32.5735 62.5306 32.4354C60.6974 31.6774 58.9932 30.6389 57.4792 29.3571C55.7361 27.8859 53.7943 26.1638 53.0796 23.9919C52.365 21.82 53.0273 19.5017 55.3805 18.2467C56.5553 17.6192 58.5355 17.9992 59.4419 18.6895C60.0348 19.1451 60.5383 19.7065 60.927 20.3454C61.2082 19.2534 61.7166 18.2329 62.4191 17.3508C62.5839 17.1593 62.7634 16.981 62.9559 16.8174C64.0609 15.9113 65.442 15.4096 66.8709 15.395C67.5516 15.3746 68.2254 15.5359 68.8231 15.8622C70.7789 16.9324 70.9079 19.0172 70.6255 20.8544Z" fill="#54323A"/>
</g>
</g>
<path d="M68.6279 20.5686C67.9307 25.1494 65.1417 28.2555 62.2412 31.916C62.1569 32.0249 62.0519 32.1161 61.9323 32.1843C61.8126 32.2525 61.6807 32.2964 61.544 32.3134C61.1923 32.3442 60.8385 32.2854 60.5156 32.1426C58.6847 31.3836 56.982 30.3465 55.4676 29.0678C53.7246 27.5967 51.7793 25.871 51.0646 23.7026C50.3499 21.5342 51.0123 19.209 53.3655 17.9539C54.5438 17.3299 56.5204 17.7064 57.4303 18.4002C58.0247 18.8533 58.5274 19.4152 58.912 20.0561C59.1938 18.9626 59.7034 17.9409 60.4075 17.058C60.5723 16.8665 60.7518 16.6881 60.9444 16.5246C62.0494 15.6186 63.4305 15.1168 64.8593 15.1023C65.5408 15.0855 66.2148 15.2465 66.8151 15.5694C68.7778 16.6397 68.9068 18.7244 68.6279 20.5686Z" fill="#F26D87"/>
<g style="mix-blend-mode:multiply" opacity="0.251912">
<g style="mix-blend-mode:multiply" opacity="0.251912">
<path d="M68.6279 20.5684C67.9307 25.1492 65.1418 28.2554 62.2413 31.9159C62.157 32.0248 62.052 32.1159 61.9323 32.1841C61.8127 32.2523 61.6807 32.2962 61.5441 32.3133C61.9229 30.5075 62.3621 28.7179 62.8618 26.9446C63.5591 24.3858 64.4097 21.67 63.6602 19.1217C63.3778 18.1699 62.8339 17.2356 61.9519 16.7755C61.6443 16.6145 61.3021 16.5307 60.9549 16.5314C62.0599 15.6254 63.441 15.1236 64.8699 15.1091C65.5513 15.0924 66.2253 15.2534 66.8256 15.5762C68.7778 16.6395 68.9068 18.7242 68.6279 20.5684Z" fill="#7D0024"/>
</g>
</g>
<path d="M54.2579 20.6278C54.5124 20.2095 55.0423 19.9306 54.746 19.3658C54.502 18.9057 54.0104 18.9579 53.606 19.1427C53.1795 19.3573 52.8184 19.6824 52.5602 20.084C51.8629 21.1054 51.7026 22.5522 52.4172 23.5701C52.6369 23.8769 53.0447 24.1488 53.369 23.9571C53.5122 23.8537 53.6185 23.707 53.6723 23.5388C53.8466 23.126 53.9549 22.6884 53.993 22.2419C54.0244 21.6806 53.9756 21.095 54.2579 20.6278Z" fill="#FFE8E1"/>
<path d="M70.9742 107.614C72.1769 106.485 73.4319 105.275 73.6237 103.543C73.6737 103.153 73.6371 102.758 73.5166 102.384C73.3961 102.01 73.1946 101.668 72.9264 101.381C71.64 100.056 69.754 100.841 68.7151 102.051C67.6763 103.26 67.1812 104.822 66.9337 106.384C66.7315 107.674 66.6862 108.981 66.5642 110.281C66.5444 110.504 66.6118 110.726 66.7522 110.9C66.8926 111.075 67.0952 111.188 67.3172 111.216C70.5175 111.62 73.8328 111.885 76.7961 110.665C77.9848 110.173 79.1736 109.354 79.1074 107.81C79.0859 107.339 78.9404 106.882 78.6856 106.485C77.8384 105.157 76.2453 104.707 74.7671 104.787C73.5956 104.903 72.4439 105.169 71.3402 105.579" fill="#FF6A95"/>
<path d="M55.9383 6.73537C56.904 8.77129 57.8069 11.0756 58.0091 13.3347C58.0221 13.3951 58.0217 13.4577 58.0078 13.5179C57.994 13.5781 57.967 13.6346 57.9289 13.6833C57.874 13.7271 57.8058 13.751 57.7355 13.751C57.6652 13.751 57.5969 13.7271 57.542 13.6833C57.4363 13.5883 57.3561 13.4685 57.3084 13.3347C56.6902 12.003 56.1092 10.655 55.5653 9.29073C55.3213 8.69808 54 6.46345 54.8681 6.01722C55.2864 5.78365 55.7292 6.29611 55.9383 6.73537Z" fill="white"/>
<path d="M54.0767 12.254C54.9587 12.9673 55.7101 13.8284 56.2974 14.7989C56.3142 14.8236 56.3256 14.8516 56.331 14.881C56.3364 14.9104 56.3357 14.9406 56.3288 14.9697C56.312 14.9994 56.2856 15.0225 56.2539 15.0352C56.2222 15.0479 56.1871 15.0494 56.1545 15.0394C56.0886 15.0179 56.0288 14.9808 55.9802 14.9313C55.4433 14.4549 54.9169 13.9668 54.4009 13.4671C54.1778 13.2475 53.1494 12.5084 53.4527 12.1389C53.6026 11.9541 53.892 12.0971 54.0767 12.254Z" fill="white"/>
<path d="M60.9619 9.22099C60.2368 10.5492 59.543 12.0552 59.3199 13.5578C59.3098 13.5974 59.3082 13.6388 59.3155 13.6791C59.3227 13.7194 59.3385 13.7577 59.3617 13.7913C59.3983 13.8208 59.4438 13.8368 59.4907 13.8368C59.5377 13.8368 59.5832 13.8208 59.6197 13.7913C59.6943 13.7323 59.7531 13.6557 59.7905 13.5682C60.2542 12.7002 60.7004 11.8252 61.1223 10.9292C61.307 10.5422 62.2797 9.09897 61.7114 8.76779C61.429 8.61091 61.1188 8.93512 60.9619 9.22099Z" fill="white"/>
<path d="M50.4371 71.5674C50.071 70.0614 49.6632 68.4787 48.199 67.4886C47.8638 67.2568 47.4862 67.0934 47.0878 67.0079C46.6894 66.9223 46.278 66.9163 45.8772 66.9901C43.9772 67.3805 43.66 69.27 44.1864 70.6819C44.7128 72.0938 45.8598 73.2443 47.1357 74.1925C48.1815 74.9769 49.3459 75.6462 50.458 76.3679C50.6525 76.492 50.8841 76.5445 51.1131 76.5166C51.3421 76.4886 51.5542 76.3818 51.713 76.2145C53.8047 73.8509 55.865 71.3338 56.374 68.3706C56.5797 67.1818 56.4856 65.8362 55.0528 65.1459C54.608 64.9342 54.1193 64.8314 53.6269 64.8461C51.964 64.8844 50.6916 65.9338 49.9595 67.1609C49.4272 68.1464 49.0386 69.2029 48.8056 70.2985" fill="#FF6A95"/>
<g style="mix-blend-mode:multiply" opacity="0.251912">
<g style="mix-blend-mode:multiply" opacity="0.251912">
<path d="M56.3741 68.3706C55.8651 71.3269 53.8187 73.8509 51.7096 76.2145C51.6132 76.3193 51.4947 76.4012 51.3626 76.4543C51.2305 76.5074 51.0882 76.5302 50.9461 76.5213C52.3162 73.7846 53.5433 70.926 53.2818 68.0464C53.1842 67.0006 52.8321 65.8641 51.6747 65.4109C52.2659 65.0575 52.9384 64.8629 53.627 64.8461C54.1193 64.8314 54.6081 64.9342 55.0528 65.1459C56.4856 65.8362 56.5797 67.1818 56.3741 68.3706Z" fill="#EF8494"/>
</g>
</g>
<path d="M46.1038 69.8907C46.1038 69.5421 46.6651 68.0117 45.811 68.2906C45.5635 68.4144 45.3736 68.6293 45.2811 68.8902C45.1134 69.2594 45.0369 69.6636 45.058 70.0685C45.0588 70.2662 45.1156 70.4596 45.2218 70.6263C45.2764 70.7086 45.3544 70.7726 45.4458 70.8099C45.5372 70.8472 45.6378 70.8561 45.7343 70.8355C45.8216 70.8047 45.8995 70.7519 45.9605 70.6823C46.0216 70.6127 46.0637 70.5286 46.0829 70.4381C46.1125 70.2572 46.1196 70.0733 46.1038 69.8907Z" fill="#FFE8E1"/>
<path d="M71.4099 103.313C71.7166 103.089 73.4493 102.587 72.6474 102.009C72.3758 101.866 72.059 101.836 71.7654 101.925C71.3274 102.016 70.9181 102.212 70.5732 102.497C70.397 102.626 70.2615 102.802 70.1827 103.006C70.1455 103.108 70.1396 103.219 70.1656 103.324C70.1917 103.43 70.2486 103.525 70.3291 103.598C70.4138 103.653 70.5111 103.686 70.6118 103.692C70.7124 103.699 70.8131 103.68 70.9044 103.637C71.0853 103.549 71.255 103.441 71.4099 103.313Z" fill="#FFE8E1"/>
<path d="M60.1287 89.4306C60.554 87.4191 61.0386 85.303 62.9176 83.9504C63.3416 83.6326 63.8254 83.4039 64.3401 83.2781C64.8547 83.1523 65.3895 83.1319 65.9123 83.2183C68.3805 83.682 68.8511 86.1746 68.2096 88.071C67.5682 89.9675 66.1179 91.5189 64.4969 92.8192C63.1547 93.8894 61.6766 94.8098 60.2612 95.7999C60.0143 95.9713 59.7143 96.0491 59.4152 96.019C59.1161 95.989 58.8375 95.8532 58.6297 95.636C55.8407 92.5612 53.1006 89.2703 52.3546 85.3588C52.0513 83.79 52.1349 82.0016 53.9687 81.0395C54.5364 80.7458 55.1667 80.5939 55.8059 80.5967C57.9638 80.5967 59.6407 81.9598 60.6272 83.5669C61.4116 84.8359 61.816 86.2652 62.2169 87.6771" fill="#FF6A95"/>
<g style="mix-blend-mode:multiply" opacity="0.251912">
<g style="mix-blend-mode:multiply" opacity="0.251912">
<path d="M68.1852 88.071C67.5507 89.9465 66.0935 91.5188 64.4724 92.8191C63.1338 93.8894 61.6521 94.8097 60.2402 95.7998C60.021 95.9503 59.7601 96.0283 59.4942 96.0229C59.5611 95.9593 59.6229 95.8906 59.679 95.8172C60.6934 94.4227 61.7951 93.0701 62.7119 91.6338C63.831 89.8733 64.6921 87.9176 64.6816 85.9339C64.6853 85.0377 64.4285 84.1596 63.9425 83.4065C64.5624 83.1753 65.2328 83.1139 65.8843 83.2287C68.3665 83.6679 68.8371 86.1745 68.1852 88.071Z" fill="#7D0024"/>
</g>
</g>
<path d="M55.1958 84.299C55.5445 83.3438 55.7571 81.789 54.8472 82.0888C54.5025 82.2597 54.2385 82.5588 54.1117 82.922C53.8328 83.5321 53.4911 84.6163 54.1779 85.0869C54.2679 85.1528 54.3766 85.1882 54.4882 85.188C54.6455 85.1612 54.7872 85.0766 54.8856 84.9509C55.026 84.7532 55.131 84.5327 55.1958 84.299Z" fill="#FFE8E1"/>
<path d="M71.7411 72.861C71.3646 71.2574 70.9427 69.57 69.4402 68.5172C69.0985 68.271 68.7102 68.0971 68.299 68.006C67.8878 67.9149 67.4624 67.9085 67.0487 67.9873C65.0964 68.4022 64.7653 70.4276 65.3056 71.9197C65.846 73.4118 67.0243 74.6459 68.3421 75.6569C69.4262 76.4936 70.615 77.2047 71.7585 77.9717C71.9569 78.1044 72.1964 78.1612 72.4333 78.1317C72.6701 78.1023 72.8885 77.9885 73.0484 77.8113C75.2168 75.2943 77.3224 72.603 77.8453 69.4445C78.058 68.1791 77.9604 66.7463 76.4857 66.0107C76.0294 65.7873 75.526 65.6773 75.0181 65.69C73.3063 65.7318 71.999 66.8508 71.246 68.1582C70.6981 69.2062 70.2992 70.3256 70.0607 71.484" fill="#FF6A95"/>
<g style="mix-blend-mode:multiply" opacity="0.251912">
<g style="mix-blend-mode:multiply" opacity="0.251912">
<path d="M77.8487 69.4583C77.3258 72.5958 75.2201 75.2941 73.0518 77.8251C72.9685 77.9228 72.865 78.0012 72.7485 78.0551C74.1743 75.4091 75.4014 72.6411 75.2899 69.7616C75.2411 68.4787 74.8576 67.0981 73.2679 66.6693C73.0626 66.6165 72.8522 66.5861 72.6404 66.5787C73.3212 66.0409 74.1576 65.7377 75.0249 65.7141C75.5319 65.6998 76.0346 65.8099 76.4891 66.0349C77.9463 66.76 78.0579 68.1928 77.8487 69.4583Z" fill="#7D0024"/>
</g>
</g>
<path d="M67.488 70.4798C67.488 70.0719 67.6762 69.2039 66.8779 69.4061C66.2155 69.5734 66.1981 70.8528 66.5293 71.2921C66.5893 71.3828 66.6753 71.4534 66.7761 71.4944C66.8769 71.5355 66.9877 71.5451 67.094 71.5222C67.1888 71.4873 67.2729 71.4286 67.3383 71.3516C67.4037 71.2746 67.448 71.1821 67.4671 71.0829C67.4985 70.8835 67.5055 70.6809 67.488 70.4798Z" fill="#FFE8E1"/>
<path d="M51.103 103.354C50.6986 102.657 50.2838 101.897 50.4441 101.053C50.4753 100.863 50.5481 100.682 50.6571 100.523C50.7662 100.364 50.9089 100.231 51.0751 100.133C51.8735 99.6938 52.6474 100.335 52.9646 101.057C53.2441 101.789 53.3176 102.583 53.1773 103.354C53.0866 103.992 52.9193 104.616 52.7903 105.244C52.7707 105.355 52.7081 105.454 52.6161 105.519C52.5241 105.584 52.4101 105.611 52.2988 105.592C50.7335 105.32 49.1333 104.968 47.9132 103.964C47.4216 103.56 46.9824 103.002 47.216 102.284C47.2955 102.066 47.43 101.873 47.6064 101.723C47.903 101.502 48.2528 101.364 48.6203 101.322C48.9877 101.28 49.3596 101.337 49.6981 101.486C50.2336 101.71 50.7385 102.002 51.2006 102.354" fill="#FF6A95"/>
<g style="mix-blend-mode:multiply" opacity="0.251912">
<g style="mix-blend-mode:multiply" opacity="0.251912">
<path d="M52.6369 105.495C52.5847 104.906 52.5533 104.313 52.4592 103.731C52.3641 102.952 52.0565 102.213 51.5702 101.597C51.289 101.263 50.9013 101.035 50.472 100.952C50.5134 100.782 50.5887 100.621 50.6935 100.48C50.7983 100.34 50.9305 100.221 51.0821 100.133C51.8805 99.6938 52.6544 100.335 52.9716 101.057C53.2528 101.788 53.3264 102.583 53.1843 103.354C53.0936 103.992 52.9263 104.616 52.7973 105.244C52.7771 105.345 52.7199 105.434 52.6369 105.495Z" fill="#EF8494"/>
</g>
</g>
<path d="M48.5232 102.751C48.6104 102.518 48.9067 102.054 48.3977 101.998C47.9794 101.956 47.7005 102.696 47.7876 103.016C47.8048 103.081 47.8402 103.139 47.8896 103.185C47.9391 103.23 48.0005 103.26 48.0665 103.271C48.1291 103.272 48.191 103.257 48.2456 103.226C48.3002 103.195 48.3455 103.151 48.3768 103.096C48.4397 102.988 48.4889 102.872 48.5232 102.751Z" fill="#FFE8E1"/>
<path d="M61.3977 61.2834C61.7707 60.1818 62.1786 59.0209 63.3429 58.376C63.8837 58.0686 64.5239 57.9872 65.1244 58.1494C66.5188 58.5642 66.6443 59.997 66.1702 61.022C65.6961 62.0469 64.7513 62.8313 63.7299 63.4623C62.8863 63.9817 61.9868 64.407 61.0909 64.8776C60.9366 64.9581 60.7592 64.9826 60.5889 64.947C60.4185 64.9114 60.2658 64.8179 60.1566 64.6824C58.7203 62.779 57.3433 60.757 57.148 58.5119C57.0713 57.609 57.2282 56.6085 58.3473 56.1797C58.6967 56.0501 59.0717 56.0047 59.4419 56.0472C60.0085 56.1269 60.5456 56.3496 61.0024 56.6942C61.4592 57.0388 61.8208 57.4939 62.0531 58.0169C62.3886 58.7843 62.6139 59.5953 62.7224 60.4258" fill="#FF6A95"/>
<path d="M59.17 57.7901C59.2216 57.7498 59.2646 57.6995 59.2962 57.6421C59.3278 57.5848 59.3474 57.5216 59.354 57.4564C59.3605 57.3913 59.3537 57.3254 59.3341 57.263C59.3144 57.2005 59.2824 57.1426 59.2397 57.0929C58.8493 56.5212 58.1521 56.8907 57.9499 57.4206C57.9059 57.5204 57.8933 57.6312 57.9139 57.7383C57.9344 57.8455 57.9871 57.9438 58.0649 58.0202C58.1461 58.0801 58.2412 58.1182 58.3413 58.131C58.4413 58.1438 58.543 58.1309 58.6366 58.0934C58.8329 58.0289 59.0142 57.9258 59.17 57.7901Z" fill="#FFE8E1"/>
<g opacity="0.17548">
<path opacity="0.17548" d="M87.0593 54.447C87.2546 58.7629 87.4498 63.0753 87.5892 67.3912C87.7287 71.707 87.8158 75.9811 87.7914 80.29C87.767 84.5989 87.638 88.8659 87.3452 93.1434C87.0524 97.4209 86.5887 101.772 85.9089 106.042C85.3441 109.57 84.4482 113.754 80.9481 115.521C80.5615 115.714 80.1546 115.864 79.7349 115.967C79.5153 116.02 79.6094 116.358 79.8255 116.316C81.4227 115.874 82.8151 114.887 83.7614 113.527C84.8909 111.997 85.4766 110.145 85.8531 108.298C86.2819 106.23 86.5503 104.114 86.8258 102.023C87.1046 99.8473 87.3278 97.665 87.523 95.4827C87.8716 91.1284 88.0668 86.7672 88.1261 82.3991C88.1854 78.0309 88.1261 73.6035 88.0006 69.2109C87.8751 64.8184 87.6868 60.4572 87.4881 56.0821L87.4149 54.4505C87.4149 54.2274 87.0663 54.2274 87.0663 54.4505L87.0593 54.447Z" fill="#8993DC"/>
</g>
<g opacity="0.15">
<path d="M48.6941 51.7312C51.4063 51.7312 55.8442 51.3826 57.4931 54.032C57.9517 54.87 58.1915 55.81 58.1904 56.7652C58.2706 58.32 58.3612 59.8644 58.3229 61.4227C58.2392 65.1599 58.1358 68.8982 58.0126 72.6377C57.7755 79.983 57.4827 87.3249 57.2177 94.6702C57.1457 96.7177 57.0748 98.7653 57.0051 100.813C56.9005 103.999 56.4612 107.705 53.6061 109.368C52.2534 110.156 50.5975 110.306 49.0078 110.354C45.6929 110.452 42.3774 110.184 39.1211 109.556C38.138 109.368 37.0921 109.103 36.4542 108.367C35.8162 107.632 35.7569 106.729 35.6907 105.84C34.8903 95.6556 34.6575 85.4346 34.9935 75.2244C35.1259 71.5047 35.2236 67.7815 35.4153 64.0687C35.5164 62.1862 35.6384 60.3036 35.8057 58.4246C35.9556 56.6815 36.001 55.0291 36.9666 53.5056C37.4434 52.702 38.1819 52.0866 39.0583 51.7625C39.9926 51.4488 41.0106 51.5743 41.9972 51.651C44.19 51.8288 46.4525 51.7347 48.6941 51.7312Z" fill="#FEFEFE"/>
</g>
<g style="mix-blend-mode:multiply" opacity="0.3">
<g style="mix-blend-mode:multiply" opacity="0.3">
<path d="M73.8328 7.64523C73.9756 8.6289 74.3869 9.55412 75.0216 10.3191C75.1645 10.4934 75.4085 10.2459 75.2691 10.0751C74.679 9.35101 74.2981 8.47945 74.1675 7.55459C74.1552 7.51035 74.126 7.47272 74.0862 7.44988C74.0464 7.42703 73.9992 7.42082 73.9548 7.43258C73.9106 7.44481 73.8729 7.47401 73.8501 7.51383C73.8272 7.55364 73.821 7.60086 73.8328 7.64523Z" fill="#FFC6A9"/>
</g>
</g>
<g style="mix-blend-mode:multiply" opacity="0.3">
<g style="mix-blend-mode:multiply" opacity="0.3">
<path d="M69.4856 10.5631C69.9492 11.2918 70.5314 12.0761 71.4796 12.1215C71.7028 12.1215 71.7028 11.7728 71.4796 11.7728C70.6813 11.7345 70.1758 10.9989 69.7854 10.3784C69.6668 10.1901 69.3635 10.3784 69.4856 10.5527V10.5631Z" fill="#FFC6A9"/>
</g>
</g>
<g opacity="0.21303">
<path opacity="0.21303" d="M93.5854 109.5C92.9748 110.729 92.0854 111.797 90.9882 112.621" stroke="#FFAC48" stroke-width="0.174308" stroke-linecap="round" stroke-linejoin="round"/>
</g>
</g>
</g>
<defs>
<clipPath id="clip0_164_14412">
<rect width="123" height="122.633" fill="white"/>
</clipPath>
<clipPath id="clip1_164_14412">
<rect width="119.269" height="122.633" fill="white" transform="translate(1.59955)"/>
</clipPath>
</defs>
</svg>
