<svg width="24" height="28" viewBox="0 0 24 28" fill="none" xmlns="http://www.w3.org/2000/svg">
<path fill-rule="evenodd" clip-rule="evenodd" d="M0.142236 13.5917C-0.731712 9.80253 2.56649 6.58693 6.07104 7.18692C10.1639 7.88764 13.6999 7.90865 17.9153 7.19267C21.4221 6.59706 24.7332 9.81611 23.8578 13.6119L21.4393 24.0977C20.911 26.3882 18.9511 28 16.7003 28H7.30432C5.05354 28 3.09363 26.3882 2.56533 24.0977L0.142236 13.5917ZM5.73924 9.31255C3.51061 8.931 1.65377 10.972 2.14134 13.086L4.56444 23.592C4.86912 24.913 6.0008 25.8462 7.30432 25.8462H16.7003C18.0038 25.8462 19.1355 24.913 19.4402 23.592L21.8587 13.1062C22.3469 10.9894 20.4813 8.93884 18.2446 9.31874C13.8074 10.0724 10.0482 10.0503 5.73924 9.31255Z" fill="#B3B9BF"/>
<path fill-rule="evenodd" clip-rule="evenodd" d="M11.2956 2.15385C9.21325 2.15385 7.52518 3.92174 7.52517 6.10256L7.52516 12.3233C7.52516 12.9181 7.06478 13.4002 6.49686 13.4002C5.92895 13.4002 5.46857 12.9181 5.46857 12.3233L5.46858 6.10255C5.46858 2.7322 8.07743 0 11.2956 0H12.6666C15.8848 0 18.4937 2.73221 18.4937 6.10257V12.5641C18.4937 13.1589 18.0333 13.641 17.4654 13.641C16.8975 13.641 16.4371 13.1589 16.4371 12.5641V6.10257C16.4371 3.92175 14.749 2.15385 12.6666 2.15385H11.2956Z" fill="#B3B9BF"/>
</svg>
