<svg width="21" height="17" viewBox="0 0 21 17" fill="none" xmlns="http://www.w3.org/2000/svg">
<path fill-rule="evenodd" clip-rule="evenodd" d="M0 1C0 0.447715 0.447715 0 1 0H20C20.5523 0 21 0.447715 21 1V2C21 2.55228 20.5523 3 20 3H1C0.447715 3 0 2.55228 0 2V1ZM0 8C0 7.44772 0.447715 7 1 7H16C16.5523 7 17 7.44772 17 8V9C17 9.55228 16.5523 10 16 10H1C0.447715 10 0 9.55228 0 9V8ZM1 14C0.447715 14 0 14.4477 0 15V16C0 16.5523 0.447715 17 1 17H20C20.5523 17 21 16.5523 21 16V15C21 14.4477 20.5523 14 20 14H1Z" fill="#5C6AC4"/>
</svg>
