<svg width="17" height="17" viewBox="0 0 17 17" fill="none" xmlns="http://www.w3.org/2000/svg">
<path fill-rule="evenodd" clip-rule="evenodd" d="M14.0254 13.0078L16.469 15.4508C17.148 16.1295 16.1299 17.1479 15.451 16.4692L13.0071 14.026C10.0714 16.4472 5.74047 16.2622 3.01913 13.5409C0.113625 10.6354 0.113625 5.92462 3.01913 3.01912C5.92463 0.113621 10.6354 0.113621 13.5409 3.01912C16.2625 5.74073 16.4473 10.0721 14.0254 13.0078ZM12.5226 4.03736C10.1795 1.69421 6.38051 1.69421 4.03736 4.03736C1.69421 6.3805 1.69421 10.1795 4.03736 12.5226C6.38051 14.8658 10.1795 14.8658 12.5226 12.5226C14.8658 10.1795 14.8658 6.3805 12.5226 4.03736Z" fill="#959EAD"/>
</svg>
